# xmcd
#
# Track frame offsets:
#	150
#	17004
#	32637
#	48922
#	64675
#	79201
#	98134
#	113911
#	128929
#	145630
#	159517
#
# Disc length: 2353 seconds
#
# Revision: 1
# Processed by: cddbd v1.5.2PL0 Copyright (c) Steve Scherf et al.
# Submitted via: audiograbber 1.83.01
#
DISCID=88092f0b
DTITLE=Diandra - Dynamiittii
DYEAR=2014
DGENRE=Pop
TTITLE0=Unelmil On Hintansa
TTITLE1=Paha Poika
TTITLE2=Paholainen Pukeutuu Pradaan
TTITLE3=Dynamiittii
TTITLE4=Bandida
TTITLE5=Kuitenkin
TTITLE6=Onni On
TTITLE7=Liukuovia
TTITLE8=Syyllinen
TTITLE9=Lentosuukkoja
TTITLE10=Vielä Vapaa
EXTD=TR.
EXTT0=
EXTT1=
EXTT2=
EXTT3=
EXTT4=
EXTT5=
EXTT6=
EXTT7=
EXTT8=
EXTT9=
EXTT10=
PLAYORDER=
